<?xml version="1.0" encoding="UTF-8" standalone="no"?>
<!-- Created with Inkscape (http://www.inkscape.org/) -->

<svg
   xmlns:dc="http://purl.org/dc/elements/1.1/"
   xmlns:cc="http://creativecommons.org/ns#"
   xmlns:rdf="http://www.w3.org/1999/02/22-rdf-syntax-ns#"
   xmlns:svg="http://www.w3.org/2000/svg"
   xmlns="http://www.w3.org/2000/svg"
   xmlns:sodipodi="http://sodipodi.sourceforge.net/DTD/sodipodi-0.dtd"
   xmlns:inkscape="http://www.inkscape.org/namespaces/inkscape"
   id="svg3004"
   version="1.1"
   inkscape:version="0.48.3.1 r9886"
   width="744.6"
   height="1052.4"
   xml:space="preserve"
   sodipodi:docname="usbasp2.svg"><metadata
     id="metadata3010"><rdf:RDF><cc:Work
         rdf:about=""><dc:format>image/svg+xml</dc:format><dc:type
           rdf:resource="http://purl.org/dc/dcmitype/StillImage" /><dc:title></dc:title></cc:Work></rdf:RDF></metadata><defs
     id="defs3008" /><sodipodi:namedview
     pagecolor="#ffffff"
     bordercolor="#666666"
     borderopacity="1"
     objecttolerance="10"
     gridtolerance="10"
     guidetolerance="10"
     inkscape:pageopacity="0"
     inkscape:pageshadow="2"
     inkscape:window-width="1360"
     inkscape:window-height="693"
     id="namedview3006"
     showgrid="false"
     inkscape:zoom="1.3626117"
     inkscape:cx="427.74796"
     inkscape:cy="861.81763"
     inkscape:window-x="0"
     inkscape:window-y="25"
     inkscape:window-maximized="1"
     inkscape:current-layer="g3012" /><g
     id="g3012"
     inkscape:groupmode="layer"
     inkscape:label="usbasp"
     transform="matrix(1.25,0,0,-1.25,0,1052.4)"><path
       sodipodi:type="arc"
       style="fill:none;stroke:#000000"
       id="path3830"
       sodipodi:cx="202.38461"
       sodipodi:cy="141.66924"
       sodipodi:rx="9.3408289"
       sodipodi:ry="9.3408289"
       d="m 211.72544,141.66924 a 9.3408289,9.3408289 0 1 1 -18.68166,0 9.3408289,9.3408289 0 1 1 18.68166,0 z"
       transform="matrix(0.79977411,-0.01900979,-0.01900979,-0.79977411,8.164519,877.32618)" /><path
       sodipodi:type="arc"
       style="fill:none;stroke:#000000"
       id="path3830-3"
       sodipodi:cx="202.38461"
       sodipodi:cy="141.66924"
       sodipodi:rx="9.3408289"
       sodipodi:ry="9.3408289"
       d="m 211.72544,141.66924 a 9.3408289,9.3408289 0 1 1 -18.68166,0 9.3408289,9.3408289 0 1 1 18.68166,0 z"
       transform="matrix(0.79977411,-0.01900979,-0.01900979,-0.79977411,92.010595,875.74852)" /><path
       sodipodi:type="arc"
       style="fill:none;stroke:#000000"
       id="path3830-6"
       sodipodi:cx="202.38461"
       sodipodi:cy="141.66924"
       sodipodi:rx="9.3408289"
       sodipodi:ry="9.3408289"
       d="m 211.72544,141.66924 a 9.3408289,9.3408289 0 1 1 -18.68166,0 9.3408289,9.3408289 0 1 1 18.68166,0 z"
       transform="matrix(0.79977411,-0.01900979,-0.01900979,-0.79977411,45.549005,825.35997)" /><path
       sodipodi:type="arc"
       style="fill:none;stroke:#000000"
       id="path3830-69"
       sodipodi:cx="202.38461"
       sodipodi:cy="141.66924"
       sodipodi:rx="9.3408289"
       sodipodi:ry="9.3408289"
       d="m 211.72544,141.66924 a 9.3408289,9.3408289 0 1 1 -18.68166,0 9.3408289,9.3408289 0 1 1 18.68166,0 z"
       transform="matrix(0.96847157,-0.02301955,-0.02301955,-0.96847157,-28.769811,797.40938)" /><path
       sodipodi:type="arc"
       style="fill:none;stroke:#000000"
       id="path3830-69-9"
       sodipodi:cx="202.38461"
       sodipodi:cy="141.66924"
       sodipodi:rx="9.3408289"
       sodipodi:ry="9.3408289"
       d="m 211.72544,141.66924 a 9.3408289,9.3408289 0 1 1 -18.68166,0 9.3408289,9.3408289 0 1 1 18.68166,0 z"
       transform="matrix(0.96847158,-0.02301955,-0.02301955,-0.96847158,57.623395,796.35087)" /><path
       sodipodi:type="arc"
       style="fill:none;stroke:#000000"
       id="path3830-69-5"
       sodipodi:cx="202.38461"
       sodipodi:cy="141.66924"
       sodipodi:rx="9.3408289"
       sodipodi:ry="9.3408289"
       d="m 211.72544,141.66924 a 9.3408289,9.3408289 0 1 1 -18.68166,0 9.3408289,9.3408289 0 1 1 18.68166,0 z"
       transform="matrix(0.96847158,-0.02301955,-0.02301955,-0.96847158,57.994378,846.90058)" /><path
       sodipodi:type="arc"
       style="fill:none;stroke:#000000"
       id="path3830-69-4"
       sodipodi:cx="202.38461"
       sodipodi:cy="141.66924"
       sodipodi:rx="9.3408289"
       sodipodi:ry="9.3408289"
       d="m 211.72544,141.66924 a 9.3408289,9.3408289 0 1 1 -18.68166,0 9.3408289,9.3408289 0 1 1 18.68166,0 z"
       transform="matrix(0.96847158,-0.02301955,-0.02301955,-0.96847158,-29.339817,845.86194)" /><path
       sodipodi:type="arc"
       style="fill:none;stroke:#000000"
       id="path3945"
       sodipodi:cx="148.93433"
       sodipodi:cy="289.56567"
       sodipodi:rx="4.1514792"
       sodipodi:ry="4.1514792"
       d="m 153.08581,289.56567 a 4.1514792,4.1514792 0 1 1 -8.30296,0 4.1514792,4.1514792 0 1 1 8.30296,0 z"
       transform="matrix(0.79977411,-0.01900979,-0.01900979,-0.79977411,1.3726229,849.76777)" /><path
       sodipodi:type="arc"
       style="fill:none;stroke:#000000"
       id="path3945-5"
       sodipodi:cx="148.93433"
       sodipodi:cy="289.56567"
       sodipodi:rx="4.1514792"
       sodipodi:ry="4.1514792"
       d="m 153.08581,289.56567 a 4.1514792,4.1514792 0 1 1 -8.30296,0 4.1514792,4.1514792 0 1 1 8.30296,0 z"
       transform="matrix(0.79977411,-0.01900979,-0.01900979,-0.79977411,175.28676,848.60151)" /><path
       sodipodi:type="arc"
       style="fill:none;stroke:#000000"
       id="path3945-0"
       sodipodi:cx="148.93433"
       sodipodi:cy="289.56567"
       sodipodi:rx="4.1514792"
       sodipodi:ry="4.1514792"
       d="m 153.08581,289.56567 a 4.1514792,4.1514792 0 1 1 -8.30296,0 4.1514792,4.1514792 0 1 1 8.30296,0 z"
       transform="matrix(0.79977411,-0.01900979,-0.01900979,-0.79977411,175.61282,734.14881)" /><path
       sodipodi:type="arc"
       style="fill:none;stroke:#000000"
       id="path3945-56"
       sodipodi:cx="148.93433"
       sodipodi:cy="289.56567"
       sodipodi:rx="4.1514792"
       sodipodi:ry="4.1514792"
       d="m 153.08581,289.56567 a 4.1514792,4.1514792 0 1 1 -8.30296,0 4.1514792,4.1514792 0 1 1 8.30296,0 z"
       transform="matrix(0.79977411,-0.01900979,-0.01900979,-0.79977411,1.3223445,733.59942)" /><rect
       style="fill:none;stroke:#000000;stroke-width:0.71772742"
       id="rect3979"
       width="192.60858"
       height="337.0589"
       x="106.18075"
       y="-822.3446"
       transform="matrix(0.99999989,-4.7459693e-4,-2.9641667e-4,-0.99999996,0,0)" /><flowRoot
       xml:space="preserve"
       id="flowRoot4018"
       style="font-size:40px;font-style:normal;font-weight:normal;line-height:125%;letter-spacing:0px;word-spacing:0px;fill:#000000;fill-opacity:1;stroke:none;font-family:Sans"
       transform="matrix(0.41282945,0,0,-0.37306761,153.67706,690.26722)"><flowRegion
         id="flowRegion4020"><rect
           id="rect4022"
           width="103.47776"
           height="51.371937"
           x="253.92415"
           y="335.39456" /></flowRegion><flowPara
         id="flowPara4024">USB</flowPara></flowRoot><flowRoot
       xml:space="preserve"
       id="flowRoot4026"
       style="font-size:40px;font-style:normal;font-weight:normal;line-height:125%;letter-spacing:0px;word-spacing:0px;fill:#000000;fill-opacity:1;stroke:none;font-family:Sans"
       transform="matrix(0.8,0,0,-0.8,0,841.92)"><flowRegion
         id="flowRegion4028"><rect
           id="rect4030"
           width="91.735603"
           height="52.10582"
           x="151.18027"
           y="329.5235" /></flowRegion><flowPara
         id="flowPara4032">MCU</flowPara></flowRoot><flowRoot
       xml:space="preserve"
       id="flowRoot4034"
       style="font-size:40px;font-style:normal;font-weight:normal;line-height:125%;letter-spacing:0px;word-spacing:0px;fill:#000000;fill-opacity:1;stroke:none;font-family:Sans"
       transform="matrix(0.42425098,0,0,-0.39247362,50.921331,696.1166)"><flowRegion
         id="flowRegion4036"><rect
           id="rect4038"
           width="140.90588"
           height="52.10582"
           x="151.91415"
           y="333.1929" /></flowRegion><flowPara
         id="flowPara4040">MCU</flowPara></flowRoot><flowRoot
       xml:space="preserve"
       id="flowRoot4042"
       style="font-size:40px;font-style:normal;font-variant:normal;font-weight:normal;font-stretch:normal;text-align:start;line-height:125%;letter-spacing:0px;word-spacing:0px;writing-mode:lr-tb;text-anchor:start;fill:#000000;fill-opacity:1;stroke:none;font-family:Sans;-inkscape-font-specification:Sans"
       transform="matrix(0.76640516,0,0,-0.8515734,-174.98508,826.20598)"><flowRegion
         id="flowRegion4044"><rect
           id="rect4046"
           width="179.80177"
           height="184.93896"
           x="418.31433"
           y="242.92508"
           style="font-size:40px;font-style:normal;font-variant:normal;font-weight:normal;font-stretch:normal;text-align:start;line-height:125%;writing-mode:lr-tb;text-anchor:start;font-family:Sans;-inkscape-font-specification:Sans" /></flowRegion><flowPara
         id="flowPara4082">USBASP</flowPara><flowPara
         id="flowPara4084"></flowPara><flowPara
         id="flowPara4086"></flowPara><flowPara
         id="flowPara4088"></flowPara><flowPara
         id="flowPara4090"></flowPara><flowPara
         id="flowPara4092"></flowPara><flowPara
         id="flowPara4094"></flowPara></flowRoot><text
       xml:space="preserve"
       style="font-size:15.92151642px;font-style:normal;font-weight:normal;line-height:125%;letter-spacing:0px;word-spacing:0px;fill:#000000;fill-opacity:1;stroke:none;font-family:Sans"
       x="139.85725"
       y="-519.56952"
       id="text4096"
       sodipodi:linespacing="125%"
       transform="scale(1,-1)"><tspan
         sodipodi:role="line"
         id="tspan4098"
         x="139.85725"
         y="-519.56952">AVR programmer</tspan></text>
<text
       xml:space="preserve"
       style="font-size:13.10440731px;font-style:normal;font-weight:normal;line-height:125%;letter-spacing:0px;word-spacing:0px;fill:#000000;fill-opacity:1;stroke:none;font-family:Sans"
       x="224.73065"
       y="-777.00928"
       id="text4100"
       sodipodi:linespacing="125%"
       transform="scale(1,-1)"><tspan
         sodipodi:role="line"
         id="tspan4102"
         x="224.73065"
         y="-777.00928">disconnect</tspan></text>
<text
       xml:space="preserve"
       style="font-size:12.39485073px;font-style:normal;font-variant:normal;font-weight:normal;font-stretch:normal;text-align:start;line-height:125%;letter-spacing:0px;word-spacing:0px;writing-mode:lr-tb;text-anchor:start;fill:#000000;fill-opacity:1;stroke:none;font-family:Sans;-inkscape-font-specification:Sans"
       x="109.36491"
       y="-700.8797"
       id="text4104"
       sodipodi:linespacing="125%"
       transform="scale(1,-1)"><tspan
         sodipodi:role="line"
         id="tspan4112"
         x="109.36491"
         y="-700.8797">power</tspan></text>
<text
       xml:space="preserve"
       style="font-size:13.25114632px;font-style:normal;font-weight:normal;line-height:125%;letter-spacing:0px;word-spacing:0px;fill:#000000;fill-opacity:1;stroke:none;font-family:Sans"
       x="112.33777"
       y="-652.43097"
       id="text4108"
       sodipodi:linespacing="125%"
       transform="scale(1,-1)"><tspan
         sodipodi:role="line"
         id="tspan4110"
         x="112.33777"
         y="-652.43097">write</tspan></text>
<text
       xml:space="preserve"
       style="font-size:13.19359112px;font-style:normal;font-variant:normal;font-weight:normal;font-stretch:normal;text-align:start;line-height:125%;letter-spacing:0px;word-spacing:0px;writing-mode:lr-tb;text-anchor:start;fill:#000000;fill-opacity:1;stroke:none;font-family:Sans;-inkscape-font-specification:Sans"
       x="150.73178"
       y="-777.95441"
       id="text4114"
       sodipodi:linespacing="125%"
       transform="scale(1,-1)"><tspan
         sodipodi:role="line"
         id="tspan4184"
         x="150.73178"
         y="-777.95441">boost</tspan></text>
<text
       xml:space="preserve"
       style="font-size:12.53303432px;font-style:normal;font-weight:normal;line-height:125%;letter-spacing:0px;word-spacing:0px;fill:#000000;fill-opacity:1;stroke:none;font-family:Sans"
       x="231.80751"
       y="-673.04126"
       id="text4118"
       sodipodi:linespacing="125%"
       transform="scale(1,-1)"><tspan
         sodipodi:role="line"
         id="tspan4120"
         x="231.80751"
         y="-673.04126">connected</tspan></text>
<text
       xml:space="preserve"
       style="font-size:11.38513374px;font-style:normal;font-variant:normal;font-weight:normal;font-stretch:normal;text-align:start;line-height:125%;letter-spacing:0px;word-spacing:0px;writing-mode:lr-tb;text-anchor:start;fill:#000000;fill-opacity:1;stroke:none;font-family:Sans;-inkscape-font-specification:Sans"
       x="172.57294"
       y="-723.05121"
       id="text4124"
       sodipodi:linespacing="125%"
       transform="scale(1,-1)"><tspan
         sodipodi:role="line"
         id="tspan4128"
         x="172.57294"
         y="-723.05121">connect rails</tspan></text>
<flowRoot
       xml:space="preserve"
       id="flowRoot4034-2"
       style="font-size:40px;font-style:normal;font-weight:normal;line-height:125%;letter-spacing:0px;word-spacing:0px;fill:#000000;fill-opacity:1;stroke:none;font-family:Sans"
       transform="matrix(0.36131919,0,0,-0.33425557,54.373426,840.07866)"><flowRegion
         id="flowRegion4036-6"><rect
           id="rect4038-2"
           width="140.90588"
           height="52.10582"
           x="151.91415"
           y="333.1929" /></flowRegion><flowPara
         id="flowPara4040-5">MCU</flowPara></flowRoot><flowRoot
       xml:space="preserve"
       id="flowRoot4018-4"
       style="font-size:40px;font-style:normal;font-weight:normal;line-height:125%;letter-spacing:0px;word-spacing:0px;fill:#000000;fill-opacity:1;stroke:none;font-family:Sans"
       transform="matrix(0.34840647,0,0,-0.31484956,177.06372,804.46486)"><flowRegion
         id="flowRegion4020-5"><rect
           id="rect4022-0"
           width="103.47776"
           height="51.371937"
           x="253.92415"
           y="335.39456" /></flowRegion><flowPara
         id="flowPara4024-6">USB</flowPara></flowRoot></g></svg>