<?xml version="1.0" encoding="UTF-8" standalone="no"?>
<!-- Created with Inkscape (http://www.inkscape.org/) -->

<svg
   xmlns:dc="http://purl.org/dc/elements/1.1/"
   xmlns:cc="http://creativecommons.org/ns#"
   xmlns:rdf="http://www.w3.org/1999/02/22-rdf-syntax-ns#"
   xmlns:svg="http://www.w3.org/2000/svg"
   xmlns="http://www.w3.org/2000/svg"
   xmlns:sodipodi="http://sodipodi.sourceforge.net/DTD/sodipodi-0.dtd"
   xmlns:inkscape="http://www.inkscape.org/namespaces/inkscape"
   id="svg3004"
   version="1.1"
   inkscape:version="0.48.3.1 r9886"
   width="744.6"
   height="1052.4"
   xml:space="preserve"
   sodipodi:docname="labels.svg"><metadata
     id="metadata3010"><rdf:RDF><cc:Work
         rdf:about=""><dc:format>image/svg+xml</dc:format><dc:type
           rdf:resource="http://purl.org/dc/dcmitype/StillImage" /><dc:title /></cc:Work></rdf:RDF></metadata><defs
     id="defs3008" /><sodipodi:namedview
     pagecolor="#ffffff"
     bordercolor="#666666"
     borderopacity="1"
     objecttolerance="10"
     gridtolerance="10"
     guidetolerance="10"
     inkscape:pageopacity="0"
     inkscape:pageshadow="2"
     inkscape:window-width="1360"
     inkscape:window-height="693"
     id="namedview3006"
     showgrid="false"
     inkscape:zoom="0.96351197"
     inkscape:cx="427.74796"
     inkscape:cy="832.46224"
     inkscape:window-x="0"
     inkscape:window-y="25"
     inkscape:window-maximized="1"
     inkscape:current-layer="g3012" /><g
     id="g3012"
     inkscape:groupmode="layer"
     inkscape:label="usbasp"
     transform="matrix(1.25,0,0,-1.25,0,1052.4)"><path
   sodipodi:type="arc"
   style="fill:none;stroke:#000000"
   id="path3830"
   sodipodi:cx="202.38461"
   sodipodi:cy="141.66924"
   sodipodi:rx="9.3408289"
   sodipodi:ry="9.3408289"
   d="m 211.72544,141.66924 a 9.3408289,9.3408289 0 1 1 -18.68166,0 9.3408289,9.3408289 0 1 1 18.68166,0 z"
   transform="matrix(-0.79977411,0.01900979,0.01900979,0.79977411,397.19313,430.11188)" /><path
   sodipodi:type="arc"
   style="fill:none;stroke:#000000"
   id="path3830-3"
   sodipodi:cx="202.38461"
   sodipodi:cy="141.66924"
   sodipodi:rx="9.3408289"
   sodipodi:ry="9.3408289"
   d="m 211.72544,141.66924 a 9.3408289,9.3408289 0 1 1 -18.68166,0 9.3408289,9.3408289 0 1 1 18.68166,0 z"
   transform="matrix(-0.79977411,0.01900979,0.01900979,0.79977411,313.34705,431.68954)" /><path
   sodipodi:type="arc"
   style="fill:none;stroke:#000000"
   id="path3830-6"
   sodipodi:cx="202.38461"
   sodipodi:cy="141.66924"
   sodipodi:rx="9.3408289"
   sodipodi:ry="9.3408289"
   d="m 211.72544,141.66924 a 9.3408289,9.3408289 0 1 1 -18.68166,0 9.3408289,9.3408289 0 1 1 18.68166,0 z"
   transform="matrix(-0.79977411,0.01900979,0.01900979,0.79977411,359.80864,482.07809)" /><path
   sodipodi:type="arc"
   style="fill:none;stroke:#000000"
   id="path3830-69"
   sodipodi:cx="202.38461"
   sodipodi:cy="141.66924"
   sodipodi:rx="9.3408289"
   sodipodi:ry="9.3408289"
   d="m 211.72544,141.66924 a 9.3408289,9.3408289 0 1 1 -18.68166,0 9.3408289,9.3408289 0 1 1 18.68166,0 z"
   transform="matrix(-0.96847157,0.02301955,0.02301955,0.96847157,434.12746,510.02868)" /><path
   sodipodi:type="arc"
   style="fill:none;stroke:#000000"
   id="path3830-69-9"
   sodipodi:cx="202.38461"
   sodipodi:cy="141.66924"
   sodipodi:rx="9.3408289"
   sodipodi:ry="9.3408289"
   d="m 211.72544,141.66924 a 9.3408289,9.3408289 0 1 1 -18.68166,0 9.3408289,9.3408289 0 1 1 18.68166,0 z"
   transform="matrix(-0.96847158,0.02301955,0.02301955,0.96847158,347.73425,511.08719)" /><path
   sodipodi:type="arc"
   style="fill:none;stroke:#000000"
   id="path3830-69-5"
   sodipodi:cx="202.38461"
   sodipodi:cy="141.66924"
   sodipodi:rx="9.3408289"
   sodipodi:ry="9.3408289"
   d="m 211.72544,141.66924 a 9.3408289,9.3408289 0 1 1 -18.68166,0 9.3408289,9.3408289 0 1 1 18.68166,0 z"
   transform="matrix(-0.96847158,0.02301955,0.02301955,0.96847158,347.36327,460.53748)" /><path
   sodipodi:type="arc"
   style="fill:none;stroke:#000000"
   id="path3830-69-4"
   sodipodi:cx="202.38461"
   sodipodi:cy="141.66924"
   sodipodi:rx="9.3408289"
   sodipodi:ry="9.3408289"
   d="m 211.72544,141.66924 a 9.3408289,9.3408289 0 1 1 -18.68166,0 9.3408289,9.3408289 0 1 1 18.68166,0 z"
   transform="matrix(-0.96847158,0.02301955,0.02301955,0.96847158,434.69746,461.57612)" /><path
   sodipodi:type="arc"
   style="fill:none;stroke:#000000"
   id="path3945"
   sodipodi:cx="148.93433"
   sodipodi:cy="289.56567"
   sodipodi:rx="4.1514792"
   sodipodi:ry="4.1514792"
   d="m 153.08581,289.56567 a 4.1514792,4.1514792 0 1 1 -8.30296,0 4.1514792,4.1514792 0 1 1 8.30296,0 z"
   transform="matrix(-0.79977411,0.01900979,0.01900979,0.79977411,403.98502,457.67029)" /><path
   sodipodi:type="arc"
   style="fill:none;stroke:#000000"
   id="path3945-5"
   sodipodi:cx="148.93433"
   sodipodi:cy="289.56567"
   sodipodi:rx="4.1514792"
   sodipodi:ry="4.1514792"
   d="m 153.08581,289.56567 a 4.1514792,4.1514792 0 1 1 -8.30296,0 4.1514792,4.1514792 0 1 1 8.30296,0 z"
   transform="matrix(-0.79977411,0.01900979,0.01900979,0.79977411,230.07088,458.83655)" /><path
   sodipodi:type="arc"
   style="fill:none;stroke:#000000"
   id="path3945-0"
   sodipodi:cx="148.93433"
   sodipodi:cy="289.56567"
   sodipodi:rx="4.1514792"
   sodipodi:ry="4.1514792"
   d="m 153.08581,289.56567 a 4.1514792,4.1514792 0 1 1 -8.30296,0 4.1514792,4.1514792 0 1 1 8.30296,0 z"
   transform="matrix(-0.79977411,0.01900979,0.01900979,0.79977411,229.74482,573.28925)" /><path
   sodipodi:type="arc"
   style="fill:none;stroke:#000000"
   id="path3945-56"
   sodipodi:cx="148.93433"
   sodipodi:cy="289.56567"
   sodipodi:rx="4.1514792"
   sodipodi:ry="4.1514792"
   d="m 153.08581,289.56567 a 4.1514792,4.1514792 0 1 1 -8.30296,0 4.1514792,4.1514792 0 1 1 8.30296,0 z"
   transform="matrix(-0.79977411,0.01900979,0.01900979,0.79977411,404.0353,573.83864)" /><rect
   style="fill:none;stroke:#000000;stroke-width:0.71772742"
   id="rect3979"
   width="192.60858"
   height="337.0589"
   x="-298.78934"
   y="485.28571"
   transform="matrix(-0.99999989,4.7459693e-4,2.9641667e-4,0.99999996,0,0)" /><flowRoot
   xml:space="preserve"
   id="flowRoot4018"
   style="font-size:40px;font-style:normal;font-weight:normal;line-height:125%;letter-spacing:0px;word-spacing:0px;fill:#000000;fill-opacity:1;stroke:none;font-family:Sans"
   transform="matrix(0.41282945,0,0,-0.37306761,7.8435104,886.31351)"><flowRegion
     id="flowRegion4020"><rect
       id="rect4022"
       width="103.47776"
       height="51.371937"
       x="253.92415"
       y="335.39456" /></flowRegion><flowPara
     id="flowPara4024">USB</flowPara></flowRoot><flowRoot
   xml:space="preserve"
   id="flowRoot4026"
   style="font-size:40px;font-style:normal;font-weight:normal;line-height:125%;letter-spacing:0px;word-spacing:0px;fill:#000000;fill-opacity:1;stroke:none;font-family:Sans"
   transform="matrix(0.8,0,0,-0.8,0,841.92)"><flowRegion
     id="flowRegion4028"><rect
       id="rect4030"
       width="91.735603"
       height="52.10582"
       x="151.18027"
       y="329.5235" /></flowRegion><flowPara
     id="flowPara4032">MCU</flowPara></flowRoot><flowRoot
   xml:space="preserve"
   id="flowRoot4034"
   style="font-size:40px;font-style:normal;font-weight:normal;line-height:125%;letter-spacing:0px;word-spacing:0px;fill:#000000;fill-opacity:1;stroke:none;font-family:Sans"
   transform="matrix(0.42425098,0,0,-0.39247362,186.41635,892.72263)"><flowRegion
     id="flowRegion4036"><rect
       id="rect4038"
       width="140.90588"
       height="52.10582"
       x="151.91415"
       y="333.1929" /></flowRegion><flowPara
     id="flowPara4040">MCU</flowPara></flowRoot><flowRoot
   xml:space="preserve"
   id="flowRoot4042"
   style="font-size:40px;font-style:normal;font-variant:normal;font-weight:normal;font-stretch:normal;text-align:start;line-height:125%;letter-spacing:0px;word-spacing:0px;writing-mode:lr-tb;text-anchor:start;fill:#000000;fill-opacity:1;stroke:none;font-family:Sans;-inkscape-font-specification:Sans"
   transform="matrix(0.76640516,0,0,-0.8515734,-181.80822,1012.8226)"><flowRegion
     id="flowRegion4044"><rect
       id="rect4046"
       width="179.80177"
       height="184.93896"
       x="418.31433"
       y="242.92508"
       style="font-size:40px;font-style:normal;font-variant:normal;font-weight:normal;font-stretch:normal;text-align:start;line-height:125%;writing-mode:lr-tb;text-anchor:start;font-family:Sans;-inkscape-font-specification:Sans" /></flowRegion><flowPara
     id="flowPara4082">USBASP</flowPara><flowPara
     id="flowPara4084" /><flowPara
     id="flowPara4086" /><flowPara
     id="flowPara4088" /><flowPara
     id="flowPara4090" /><flowPara
     id="flowPara4092" /><flowPara
     id="flowPara4094" /></flowRoot><text
   xml:space="preserve"
   style="font-size:15.92151642px;font-style:normal;font-weight:normal;line-height:125%;letter-spacing:0px;word-spacing:0px;fill:#000000;fill-opacity:1;stroke:none;font-family:Sans"
   x="131.11911"
   y="-718.13159"
   id="text4096"
   sodipodi:linespacing="125%"
   transform="scale(1,-1)"><tspan
     sodipodi:role="line"
     id="tspan4098"
     x="131.11911"
     y="-718.13159">AVR programmer</tspan></text>

<text
   xml:space="preserve"
   style="font-size:13.10440731px;font-style:normal;font-weight:normal;line-height:125%;letter-spacing:0px;word-spacing:0px;fill:#000000;fill-opacity:1;stroke:none;font-family:Sans"
   x="109.97812"
   y="-525.63989"
   id="text4100"
   sodipodi:linespacing="125%"
   transform="scale(1,-1)"><tspan
     sodipodi:role="line"
     x="109.97812"
     y="-525.63989"
     id="tspan3038">reconnect</tspan></text>

<text
   xml:space="preserve"
   style="font-size:12.39485073px;font-style:normal;font-variant:normal;font-weight:normal;font-stretch:normal;text-align:start;line-height:125%;letter-spacing:0px;word-spacing:0px;writing-mode:lr-tb;text-anchor:start;fill:#000000;fill-opacity:1;stroke:none;font-family:Sans;-inkscape-font-specification:Sans"
   x="255.72646"
   y="-593.06152"
   id="text4104"
   sodipodi:linespacing="125%"
   transform="scale(1,-1)"><tspan
     sodipodi:role="line"
     id="tspan4112"
     x="255.72646"
     y="-593.06152">power</tspan></text>

<text
   xml:space="preserve"
   style="font-size:13.25114632px;font-style:normal;font-weight:normal;line-height:125%;letter-spacing:0px;word-spacing:0px;fill:#000000;fill-opacity:1;stroke:none;font-family:Sans"
   x="259.00348"
   y="-647.61786"
   id="text4108"
   sodipodi:linespacing="125%"
   transform="scale(1,-1)"><tspan
     sodipodi:role="line"
     id="tspan4110"
     x="259.00348"
     y="-647.61786">write</tspan></text>

<text
   xml:space="preserve"
   style="font-size:13.19359112px;font-style:normal;font-variant:normal;font-weight:normal;font-stretch:normal;text-align:start;line-height:125%;letter-spacing:0px;word-spacing:0px;writing-mode:lr-tb;text-anchor:start;fill:#000000;fill-opacity:1;stroke:none;font-family:Sans;-inkscape-font-specification:Sans"
   x="221.33537"
   y="-563.6521"
   id="text4114"
   sodipodi:linespacing="125%"
   transform="scale(1,-1)"><tspan
     sodipodi:role="line"
     id="tspan4184"
     x="221.33537"
     y="-563.6521">boost</tspan></text>

<text
   xml:space="preserve"
   style="font-size:12.53303432px;font-style:normal;font-weight:normal;line-height:125%;letter-spacing:0px;word-spacing:0px;fill:#000000;fill-opacity:1;stroke:none;font-family:Sans"
   x="107.49055"
   y="-580.21606"
   id="text4118"
   sodipodi:linespacing="125%"
   transform="scale(1,-1)"><tspan
     sodipodi:role="line"
     id="tspan4120"
     x="107.49055"
     y="-580.21606">connected</tspan></text>

<text
   xml:space="preserve"
   style="font-size:11.38513374px;font-style:normal;font-variant:normal;font-weight:normal;font-stretch:normal;text-align:start;line-height:125%;letter-spacing:0px;word-spacing:0px;writing-mode:lr-tb;text-anchor:start;fill:#000000;fill-opacity:1;stroke:none;font-family:Sans;-inkscape-font-specification:Sans"
   x="165.54959"
   y="-617.41284"
   id="text4124"
   sodipodi:linespacing="125%"
   transform="scale(1,-1)"><tspan
     sodipodi:role="line"
     id="tspan4128"
     x="165.54959"
     y="-617.41284">connect rails</tspan></text>

<flowRoot
   xml:space="preserve"
   id="flowRoot4034-2"
   style="font-size:40px;font-style:normal;font-weight:normal;line-height:125%;letter-spacing:0px;word-spacing:0px;fill:#000000;fill-opacity:1;stroke:none;font-family:Sans"
   transform="matrix(0.36131919,0,0,-0.33425557,202.90593,731.92745)"><flowRegion
     id="flowRegion4036-6"><rect
       id="rect4038-2"
       width="140.90588"
       height="52.10582"
       x="151.91415"
       y="333.1929" /></flowRegion><flowPara
     id="flowPara4040-5">MCU</flowPara></flowRoot><flowRoot
   xml:space="preserve"
   id="flowRoot4018-4"
   style="font-size:40px;font-style:normal;font-weight:normal;line-height:125%;letter-spacing:0px;word-spacing:0px;fill:#000000;fill-opacity:1;stroke:none;font-family:Sans"
   transform="matrix(0.34840647,0,0,-0.31484956,20.847592,714.33992)"><flowRegion
     id="flowRegion4020-5"><rect
       id="rect4022-0"
       width="103.47776"
       height="51.371937"
       x="253.92415"
       y="335.39456" /></flowRegion><flowPara
     id="flowPara4024-6">USB</flowPara></flowRoot></g></svg>